<svg width="203" height="31" viewBox="0 0 203 31" fill="none" xmlns="http://www.w3.org/2000/svg">
<path d="M9.05572 30.396C6.91972 30.396 5.23972 29.976 4.01572 29.136C2.81572 28.296 1.97572 27.156 1.49572 25.716C1.01572 24.252 0.775719 22.572 0.775719 20.676V10.272C0.775719 8.28 1.01572 6.552 1.49572 5.088C1.97572 3.624 2.81572 2.496 4.01572 1.704C5.23972 0.911998 6.91972 0.515998 9.05572 0.515998C11.0717 0.515998 12.6437 0.863998 13.7717 1.56C14.9237 2.232 15.7397 3.204 16.2197 4.476C16.6997 5.748 16.9397 7.224 16.9397 8.904V11.352H11.8277V8.832C11.8277 8.016 11.7797 7.272 11.6837 6.6C11.6117 5.928 11.3837 5.4 10.9997 5.016C10.6397 4.608 10.0037 4.404 9.09172 4.404C8.17972 4.404 7.50772 4.62 7.07572 5.052C6.66772 5.46 6.40372 6.024 6.28372 6.744C6.16372 7.44 6.10372 8.232 6.10372 9.12V21.792C6.10372 22.848 6.18772 23.724 6.35572 24.42C6.52372 25.092 6.82372 25.608 7.25572 25.968C7.71172 26.304 8.32372 26.472 9.09172 26.472C9.97972 26.472 10.6037 26.268 10.9637 25.86C11.3477 25.428 11.5877 24.864 11.6837 24.168C11.7797 23.472 11.8277 22.692 11.8277 21.828V19.2H16.9397V21.54C16.9397 23.268 16.7117 24.804 16.2557 26.148C15.7997 27.468 14.9957 28.512 13.8437 29.28C12.7157 30.024 11.1197 30.396 9.05572 30.396ZM28.5691 30.396C26.5051 30.396 24.8611 30.012 23.6371 29.244C22.4131 28.476 21.5371 27.372 21.0091 25.932C20.4811 24.492 20.2171 22.788 20.2171 20.82V9.912C20.2171 7.944 20.4811 6.264 21.0091 4.872C21.5371 3.456 22.4131 2.376 23.6371 1.632C24.8611 0.887998 26.5051 0.515998 28.5691 0.515998C30.6811 0.515998 32.3371 0.887998 33.5371 1.632C34.7611 2.376 35.6371 3.456 36.1651 4.872C36.7171 6.264 36.9931 7.944 36.9931 9.912V20.856C36.9931 22.8 36.7171 24.492 36.1651 25.932C35.6371 27.348 34.7611 28.452 33.5371 29.244C32.3371 30.012 30.6811 30.396 28.5691 30.396ZM28.5691 26.472C29.4571 26.472 30.1051 26.28 30.5131 25.896C30.9451 25.512 31.2331 24.984 31.3771 24.312C31.5211 23.64 31.5931 22.908 31.5931 22.116V8.688C31.5931 7.872 31.5211 7.14 31.3771 6.492C31.2331 5.844 30.9451 5.34 30.5131 4.98C30.1051 4.596 29.4571 4.404 28.5691 4.404C27.7291 4.404 27.0931 4.596 26.6611 4.98C26.2291 5.34 25.9411 5.844 25.7971 6.492C25.6531 7.14 25.5811 7.872 25.5811 8.688V22.116C25.5811 22.908 25.6411 23.64 25.7611 24.312C25.9051 24.984 26.1931 25.512 26.6251 25.896C27.0571 26.28 27.7051 26.472 28.5691 26.472ZM40.9343 30V0.839998H52.9223V4.512H46.2623V13.008H51.6983V16.716H46.2623V30H40.9343ZM55.8054 30V0.839998H67.7934V4.512H61.1334V13.008H66.5694V16.716H61.1334V30H55.8054ZM70.6765 30V0.839998H82.9165V4.584H76.0045V12.972H81.4405V16.68H76.0045V26.328H82.9885V30H70.6765ZM86.0749 30V0.839998H98.3149V4.584H91.4029V12.972H96.8389V16.68H91.4029V26.328H98.3869V30H86.0749ZM110.299 30V0.839998H115.591V13.044H121.531V0.839998H126.859V30H121.531V16.824H115.591V30H110.299ZM139.241 30.396C137.177 30.396 135.533 30.012 134.309 29.244C133.085 28.476 132.209 27.372 131.681 25.932C131.153 24.492 130.889 22.788 130.889 20.82V9.912C130.889 7.944 131.153 6.264 131.681 4.872C132.209 3.456 133.085 2.376 134.309 1.632C135.533 0.887998 137.177 0.515998 139.241 0.515998C141.353 0.515998 143.009 0.887998 144.209 1.632C145.433 2.376 146.309 3.456 146.837 4.872C147.389 6.264 147.665 7.944 147.665 9.912V20.856C147.665 22.8 147.389 24.492 146.837 25.932C146.309 27.348 145.433 28.452 144.209 29.244C143.009 30.012 141.353 30.396 139.241 30.396ZM139.241 26.472C140.129 26.472 140.777 26.28 141.185 25.896C141.617 25.512 141.905 24.984 142.049 24.312C142.193 23.64 142.265 22.908 142.265 22.116V8.688C142.265 7.872 142.193 7.14 142.049 6.492C141.905 5.844 141.617 5.34 141.185 4.98C140.777 4.596 140.129 4.404 139.241 4.404C138.401 4.404 137.765 4.596 137.333 4.98C136.901 5.34 136.613 5.844 136.469 6.492C136.325 7.14 136.253 7.872 136.253 8.688V22.116C136.253 22.908 136.313 23.64 136.433 24.312C136.577 24.984 136.865 25.512 137.297 25.896C137.729 26.28 138.377 26.472 139.241 26.472ZM159.598 30.396C157.438 30.396 155.758 30 154.558 29.208C153.358 28.416 152.53 27.288 152.074 25.824C151.618 24.36 151.39 22.608 151.39 20.568V0.839998H156.574V21.18C156.574 22.092 156.634 22.956 156.754 23.772C156.874 24.564 157.15 25.212 157.582 25.716C158.038 26.196 158.71 26.436 159.598 26.436C160.534 26.436 161.206 26.196 161.614 25.716C162.046 25.212 162.322 24.564 162.442 23.772C162.586 22.956 162.658 22.092 162.658 21.18V0.839998H167.806V20.568C167.806 22.608 167.578 24.36 167.122 25.824C166.666 27.288 165.838 28.416 164.638 29.208C163.462 30 161.782 30.396 159.598 30.396ZM179.341 30.396C177.589 30.396 176.125 30.06 174.949 29.388C173.773 28.692 172.885 27.684 172.285 26.364C171.685 25.044 171.349 23.424 171.277 21.504L175.849 20.604C175.897 21.732 176.029 22.728 176.245 23.592C176.485 24.456 176.833 25.128 177.289 25.608C177.769 26.064 178.393 26.292 179.161 26.292C180.025 26.292 180.637 26.04 180.997 25.536C181.357 25.008 181.537 24.348 181.537 23.556C181.537 22.284 181.249 21.24 180.673 20.424C180.097 19.608 179.329 18.792 178.369 17.976L174.697 14.736C173.665 13.848 172.837 12.864 172.213 11.784C171.613 10.68 171.313 9.324 171.313 7.716C171.313 5.412 171.985 3.636 173.329 2.388C174.673 1.14 176.509 0.515998 178.837 0.515998C180.205 0.515998 181.345 0.731998 182.257 1.164C183.169 1.572 183.889 2.148 184.417 2.892C184.969 3.636 185.377 4.488 185.641 5.448C185.905 6.384 186.073 7.38 186.145 8.436L181.609 9.228C181.561 8.316 181.453 7.5 181.285 6.78C181.141 6.06 180.865 5.496 180.457 5.088C180.073 4.68 179.497 4.476 178.729 4.476C177.937 4.476 177.325 4.74 176.893 5.268C176.485 5.772 176.281 6.408 176.281 7.176C176.281 8.16 176.485 8.976 176.893 9.624C177.301 10.248 177.889 10.896 178.657 11.568L182.293 14.772C183.493 15.78 184.513 16.968 185.353 18.336C186.217 19.68 186.649 21.312 186.649 23.232C186.649 24.624 186.337 25.86 185.713 26.94C185.113 28.02 184.261 28.872 183.157 29.496C182.077 30.096 180.805 30.396 179.341 30.396ZM189.786 30V0.839998H202.026V4.584H195.114V12.972H200.55V16.68H195.114V26.328H202.098V30H189.786Z" fill="black"/>
</svg>
